<svg width="1393" height="309" viewBox="0 0 1393 309" fill="none" xmlns="http://www.w3.org/2000/svg">
<rect x="8" y="13" width="288" height="288" stroke="#5F108C" stroke-width="16"/>
<line x1="7.34315" y1="173.912" x2="63.9117" y2="117.343" stroke="#5F108C" stroke-width="16"/>
<line x1="52.6569" y1="117.343" x2="143.662" y2="208.349" stroke="#5F108C" stroke-width="16"/>
<path d="M170.5 174.5L296.936 301.622" stroke="#5F108C" stroke-width="16"/>
<line x1="54.3431" y1="301.622" x2="181.622" y2="174.343" stroke="#5F108C" stroke-width="16"/>
<circle cx="156" cy="91" r="32" fill="#5F108C"/>
<path d="M431.8 184.4C431.8 194.8 427.933 202.667 420.2 208C412.467 213.333 402.067 216 389 216C381.533 216 375.067 215.4 369.6 214.2C364.267 213 359.533 211.333 355.4 209.2V193.2C359.667 195.333 364.8 197.333 370.8 199.2C376.933 200.933 383.133 201.8 389.4 201.8C398.333 201.8 404.8 200.4 408.8 197.6C412.8 194.667 414.8 190.8 414.8 186C414.8 183.333 414.067 180.933 412.6 178.8C411.133 176.667 408.467 174.533 404.6 172.4C400.867 170.267 395.467 167.867 388.4 165.2C381.467 162.533 375.533 159.867 370.6 157.2C365.667 154.533 361.867 151.333 359.2 147.6C356.533 143.867 355.2 139.067 355.2 133.2C355.2 124.133 358.867 117.133 366.2 112.2C373.667 107.267 383.4 104.8 395.4 104.8C401.933 104.8 408 105.467 413.6 106.8C419.333 108 424.667 109.733 429.6 112L423.6 126C419.067 124.133 414.333 122.533 409.4 121.2C404.467 119.867 399.4 119.2 394.2 119.2C387 119.2 381.467 120.4 377.6 122.8C373.867 125.067 372 128.2 372 132.2C372 135.133 372.867 137.667 374.6 139.8C376.333 141.8 379.2 143.8 383.2 145.8C387.333 147.667 392.8 149.933 399.6 152.6C406.4 155.133 412.2 157.733 417 160.4C421.8 163.067 425.467 166.333 428 170.2C430.533 173.933 431.8 178.667 431.8 184.4ZM499.103 104.8C508.303 104.8 516.17 106.8 522.703 110.8C529.37 114.8 534.436 120.467 537.903 127.8C541.503 135 543.303 143.467 543.303 153.2V163.8H469.903C470.17 175.933 473.236 185.2 479.103 191.6C485.103 197.867 493.436 201 504.103 201C510.903 201 516.903 200.4 522.103 199.2C527.436 197.867 532.903 196 538.503 193.6V209C533.036 211.4 527.636 213.133 522.303 214.2C516.97 215.4 510.636 216 503.303 216C493.17 216 484.17 213.933 476.303 209.8C468.57 205.667 462.503 199.533 458.103 191.4C453.836 183.133 451.703 173.067 451.703 161.2C451.703 149.467 453.636 139.4 457.503 131C461.503 122.6 467.036 116.133 474.103 111.6C481.303 107.067 489.636 104.8 499.103 104.8ZM498.903 119.2C490.503 119.2 483.836 121.933 478.903 127.4C474.103 132.733 471.236 140.2 470.303 149.8H524.903C524.77 140.733 522.636 133.4 518.503 127.8C514.37 122.067 507.836 119.2 498.903 119.2ZM620.594 104.8C622.594 104.8 624.727 104.933 626.994 105.2C629.394 105.333 631.46 105.6 633.194 106L630.994 122.2C629.26 121.8 627.327 121.467 625.194 121.2C623.194 120.933 621.26 120.8 619.394 120.8C613.927 120.8 608.794 122.333 603.994 125.4C599.194 128.333 595.327 132.533 592.394 138C589.594 143.333 588.194 149.6 588.194 156.8V214H570.594V106.8H584.994L586.994 126.4H587.794C591.26 120.533 595.727 115.467 601.194 111.2C606.66 106.933 613.127 104.8 620.594 104.8ZM690.705 104.8C699.905 104.8 707.771 106.8 714.305 110.8C720.971 114.8 726.038 120.467 729.505 127.8C733.105 135 734.905 143.467 734.905 153.2V163.8H661.505C661.771 175.933 664.838 185.2 670.705 191.6C676.705 197.867 685.038 201 695.705 201C702.505 201 708.505 200.4 713.705 199.2C719.038 197.867 724.505 196 730.105 193.6V209C724.638 211.4 719.238 213.133 713.905 214.2C708.571 215.4 702.238 216 694.905 216C684.771 216 675.771 213.933 667.905 209.8C660.171 205.667 654.105 199.533 649.705 191.4C645.438 183.133 643.305 173.067 643.305 161.2C643.305 149.467 645.238 139.4 649.105 131C653.105 122.6 658.638 116.133 665.705 111.6C672.905 107.067 681.238 104.8 690.705 104.8ZM690.505 119.2C682.105 119.2 675.438 121.933 670.505 127.4C665.705 132.733 662.838 140.2 661.905 149.8H716.505C716.371 140.733 714.238 133.4 710.105 127.8C705.971 122.067 699.438 119.2 690.505 119.2ZM813.795 104.8C826.595 104.8 836.262 107.933 842.795 114.2C849.329 120.333 852.595 130.333 852.595 144.2V214H835.195V145.4C835.195 128.2 827.195 119.6 811.195 119.6C799.329 119.6 791.129 122.933 786.595 129.6C782.062 136.267 779.795 145.867 779.795 158.4V214H762.195V106.8H776.395L778.995 121.4H779.995C783.462 115.8 788.262 111.667 794.395 109C800.529 106.2 806.995 104.8 813.795 104.8ZM923.828 216C910.495 216 899.828 211.4 891.828 202.2C883.828 192.867 879.828 179 879.828 160.6C879.828 142.2 883.828 128.333 891.828 119C899.961 109.533 910.695 104.8 924.028 104.8C932.295 104.8 939.028 106.333 944.228 109.4C949.561 112.467 953.895 116.2 957.228 120.6H958.428C958.295 118.867 958.028 116.333 957.628 113C957.361 109.533 957.228 106.8 957.228 104.8V62H974.828V214H960.628L958.028 199.6H957.228C954.028 204.133 949.761 208 944.428 211.2C939.095 214.4 932.228 216 923.828 216ZM926.628 201.4C937.961 201.4 945.895 198.333 950.428 192.2C955.095 185.933 957.428 176.533 957.428 164V160.8C957.428 147.467 955.228 137.267 950.828 130.2C946.428 123 938.295 119.4 926.428 119.4C916.961 119.4 909.828 123.2 905.028 130.8C900.361 138.267 898.028 148.333 898.028 161C898.028 173.8 900.361 183.733 905.028 190.8C909.828 197.867 917.028 201.4 926.628 201.4ZM1017.88 66.6C1020.54 66.6 1022.88 67.5333 1024.88 69.4C1027.01 71.1333 1028.08 73.9333 1028.08 77.8C1028.08 81.5333 1027.01 84.3333 1024.88 86.2C1022.88 88.0667 1020.54 89 1017.88 89C1014.94 89 1012.48 88.0667 1010.48 86.2C1008.48 84.3333 1007.48 81.5333 1007.48 77.8C1007.48 73.9333 1008.48 71.1333 1010.48 69.4C1012.48 67.5333 1014.94 66.6 1017.88 66.6ZM1026.48 106.8V214H1008.88V106.8H1026.48ZM1111.44 104.8C1124.64 104.8 1135.24 109.4 1143.24 118.6C1151.37 127.8 1155.44 141.667 1155.44 160.2C1155.44 178.467 1151.37 192.333 1143.24 201.8C1135.24 211.267 1124.57 216 1111.24 216C1102.97 216 1096.1 214.467 1090.64 211.4C1085.3 208.2 1081.1 204.533 1078.04 200.4H1076.84C1077.1 202.667 1077.37 205.533 1077.64 209C1077.9 212.467 1078.04 215.467 1078.04 218V262H1060.44V106.8H1074.84L1077.24 121.4H1078.04C1081.24 116.733 1085.44 112.8 1090.64 109.6C1095.84 106.4 1102.77 104.8 1111.44 104.8ZM1108.24 119.6C1097.3 119.6 1089.57 122.667 1085.04 128.8C1080.64 134.933 1078.3 144.267 1078.04 156.8V160.2C1078.04 173.4 1080.17 183.6 1084.44 190.8C1088.84 197.867 1096.9 201.4 1108.64 201.4C1115.17 201.4 1120.5 199.6 1124.64 196C1128.9 192.4 1132.04 187.533 1134.04 181.4C1136.17 175.133 1137.24 168 1137.24 160C1137.24 147.733 1134.84 137.933 1130.04 130.6C1125.37 123.267 1118.1 119.6 1108.24 119.6ZM1192.48 66.6C1195.15 66.6 1197.48 67.5333 1199.48 69.4C1201.62 71.1333 1202.68 73.9333 1202.68 77.8C1202.68 81.5333 1201.62 84.3333 1199.48 86.2C1197.48 88.0667 1195.15 89 1192.48 89C1189.55 89 1187.08 88.0667 1185.08 86.2C1183.08 84.3333 1182.08 81.5333 1182.08 77.8C1182.08 73.9333 1183.08 71.1333 1185.08 69.4C1187.08 67.5333 1189.55 66.6 1192.48 66.6ZM1201.08 106.8V214H1183.48V106.8H1201.08ZM1270.85 201.6C1273.51 201.6 1276.25 201.4 1279.05 201C1281.85 200.467 1284.11 199.933 1285.85 199.4V212.8C1283.98 213.733 1281.31 214.467 1277.85 215C1274.38 215.667 1271.05 216 1267.85 216C1262.25 216 1257.05 215.067 1252.25 213.2C1247.58 211.2 1243.78 207.8 1240.85 203C1237.91 198.2 1236.45 191.467 1236.45 182.8V120.4H1221.25V112L1236.65 105L1243.65 82.2H1254.05V106.8H1285.05V120.4H1254.05V182.4C1254.05 188.933 1255.58 193.8 1258.65 197C1261.85 200.067 1265.91 201.6 1270.85 201.6ZM1290.51 106.8H1309.31L1332.51 167.8C1334.51 173.133 1336.31 178.267 1337.91 183.2C1339.51 188 1340.71 192.6 1341.51 197H1342.31C1343.11 193.667 1344.38 189.333 1346.11 184C1347.85 178.533 1349.65 173.067 1351.51 167.6L1373.31 106.8H1392.31L1346.11 228.8C1342.38 238.933 1337.51 247 1331.51 253C1325.65 259 1317.51 262 1307.11 262C1303.91 262 1301.11 261.8 1298.71 261.4C1296.31 261.133 1294.25 260.8 1292.51 260.4V246.4C1293.98 246.667 1295.71 246.933 1297.71 247.2C1299.85 247.467 1302.05 247.6 1304.31 247.6C1310.45 247.6 1315.38 245.867 1319.11 242.4C1322.98 238.933 1325.98 234.333 1328.11 228.6L1333.71 214.4L1290.51 106.8Z" fill="#5F108C"/>
</svg>
